<mxfile host="app.diagrams.net" modified="2023-10-25T04:37:27.492Z" agent="Mozilla/5.0 (Windows NT 10.0; Win64; x64) AppleWebKit/537.36 (KHTML, like Gecko) Chrome/118.0.0.0 Safari/537.36" etag="4MiIrKcrn_-sTV8wh94U" version="22.0.7" type="github">
  <diagram name="第 1 页" id="l8xfBAseH4ksvrrm0t2u">
    <mxGraphModel dx="1400" dy="780" grid="1" gridSize="10" guides="1" tooltips="1" connect="1" arrows="1" fold="1" page="1" pageScale="1" pageWidth="827" pageHeight="1169" math="0" shadow="0">
      <root>
        <mxCell id="0" />
        <mxCell id="1" parent="0" />
        <mxCell id="W1ye4J7-Ofte6-L-vgGF-2" style="rounded=0;orthogonalLoop=1;jettySize=auto;html=1;exitX=0.5;exitY=1;exitDx=0;exitDy=0;entryX=0.5;entryY=0;entryDx=0;entryDy=0;" parent="1" source="niaGHHPIjS1ahwkak-Eg-1" target="W1ye4J7-Ofte6-L-vgGF-1" edge="1">
          <mxGeometry relative="1" as="geometry" />
        </mxCell>
        <mxCell id="W1ye4J7-Ofte6-L-vgGF-3" value="is measured by" style="edgeLabel;html=1;align=center;verticalAlign=middle;resizable=0;points=[];" parent="W1ye4J7-Ofte6-L-vgGF-2" vertex="1" connectable="0">
          <mxGeometry x="0.2963" y="-1" relative="1" as="geometry">
            <mxPoint x="8" y="-5" as="offset" />
          </mxGeometry>
        </mxCell>
        <mxCell id="niaGHHPIjS1ahwkak-Eg-1" value="Human Health" style="rounded=1;whiteSpace=wrap;html=1;fillColor=#dae8fc;strokeColor=#6c8ebf;" parent="1" vertex="1">
          <mxGeometry x="733.5" y="495" width="120" height="60" as="geometry" />
        </mxCell>
        <mxCell id="W1ye4J7-Ofte6-L-vgGF-1" value="RR / OR" style="rounded=1;whiteSpace=wrap;html=1;" parent="1" vertex="1">
          <mxGeometry x="760" y="600" width="67" height="30" as="geometry" />
        </mxCell>
        <mxCell id="dDBE8Ikue2ZBGCOVkp6C-1" value="&lt;pre style=&quot;margin-top: 0px; margin-bottom: 0px; font-family: inherit; font-size: 14px; word-break: normal; text-align: left;&quot; class=&quot;js_message_plain ng-binding&quot;&gt;suspended &lt;/pre&gt;&lt;pre style=&quot;margin-top: 0px; margin-bottom: 0px; font-family: inherit; font-size: 14px; word-break: normal; text-align: left;&quot; class=&quot;js_message_plain ng-binding&quot;&gt;sediment&lt;/pre&gt;" style="rounded=1;whiteSpace=wrap;html=1;fillColor=#fff2cc;strokeColor=#d6b656;" vertex="1" parent="1">
          <mxGeometry x="600" y="410" width="90" height="50" as="geometry" />
        </mxCell>
        <mxCell id="dDBE8Ikue2ZBGCOVkp6C-37" style="rounded=0;orthogonalLoop=1;jettySize=auto;html=1;exitX=1;exitY=0.5;exitDx=0;exitDy=0;entryX=0;entryY=0.5;entryDx=0;entryDy=0;" edge="1" parent="1" source="dDBE8Ikue2ZBGCOVkp6C-2" target="niaGHHPIjS1ahwkak-Eg-1">
          <mxGeometry relative="1" as="geometry" />
        </mxCell>
        <mxCell id="dDBE8Ikue2ZBGCOVkp6C-38" value="Impact" style="edgeLabel;html=1;align=center;verticalAlign=middle;resizable=0;points=[];" vertex="1" connectable="0" parent="dDBE8Ikue2ZBGCOVkp6C-37">
          <mxGeometry x="0.1712" y="-1" relative="1" as="geometry">
            <mxPoint as="offset" />
          </mxGeometry>
        </mxCell>
        <mxCell id="dDBE8Ikue2ZBGCOVkp6C-2" value="Water quality" style="rounded=1;whiteSpace=wrap;html=1;fillColor=#dae8fc;strokeColor=#6c8ebf;" vertex="1" parent="1">
          <mxGeometry x="510" y="495" width="120" height="60" as="geometry" />
        </mxCell>
        <mxCell id="dDBE8Ikue2ZBGCOVkp6C-4" value="&lt;pre style=&quot;margin-top: 0px; margin-bottom: 0px; font-family: inherit; font-size: 14px; word-break: normal; text-align: left; background-color: rgb(255, 255, 255);&quot; class=&quot;js_message_plain ng-binding&quot;&gt;AQI&lt;/pre&gt;" style="rounded=1;whiteSpace=wrap;html=1;" vertex="1" parent="1">
          <mxGeometry x="1000" y="409" width="80" height="50" as="geometry" />
        </mxCell>
        <mxCell id="dDBE8Ikue2ZBGCOVkp6C-35" style="rounded=0;orthogonalLoop=1;jettySize=auto;html=1;exitX=0;exitY=0.5;exitDx=0;exitDy=0;entryX=1;entryY=0.5;entryDx=0;entryDy=0;" edge="1" parent="1" source="dDBE8Ikue2ZBGCOVkp6C-6" target="niaGHHPIjS1ahwkak-Eg-1">
          <mxGeometry relative="1" as="geometry" />
        </mxCell>
        <mxCell id="dDBE8Ikue2ZBGCOVkp6C-39" value="Impact" style="edgeLabel;html=1;align=center;verticalAlign=middle;resizable=0;points=[];" vertex="1" connectable="0" parent="dDBE8Ikue2ZBGCOVkp6C-35">
          <mxGeometry x="0.2473" y="-3" relative="1" as="geometry">
            <mxPoint as="offset" />
          </mxGeometry>
        </mxCell>
        <mxCell id="dDBE8Ikue2ZBGCOVkp6C-43" style="rounded=0;orthogonalLoop=1;jettySize=auto;html=1;exitX=0.5;exitY=0;exitDx=0;exitDy=0;entryX=0.25;entryY=1;entryDx=0;entryDy=0;" edge="1" parent="1" source="dDBE8Ikue2ZBGCOVkp6C-6" target="dDBE8Ikue2ZBGCOVkp6C-4">
          <mxGeometry relative="1" as="geometry" />
        </mxCell>
        <mxCell id="dDBE8Ikue2ZBGCOVkp6C-52" value="is measured by" style="edgeLabel;html=1;align=center;verticalAlign=middle;resizable=0;points=[];" vertex="1" connectable="0" parent="dDBE8Ikue2ZBGCOVkp6C-43">
          <mxGeometry x="-0.0101" y="-1" relative="1" as="geometry">
            <mxPoint as="offset" />
          </mxGeometry>
        </mxCell>
        <mxCell id="dDBE8Ikue2ZBGCOVkp6C-6" value="Air quality" style="rounded=1;whiteSpace=wrap;html=1;fillColor=#dae8fc;strokeColor=#6c8ebf;" vertex="1" parent="1">
          <mxGeometry x="960" y="495" width="120" height="60" as="geometry" />
        </mxCell>
        <mxCell id="dDBE8Ikue2ZBGCOVkp6C-34" style="rounded=0;orthogonalLoop=1;jettySize=auto;html=1;exitX=0.5;exitY=1;exitDx=0;exitDy=0;entryX=0.25;entryY=0;entryDx=0;entryDy=0;" edge="1" parent="1" source="dDBE8Ikue2ZBGCOVkp6C-7" target="dDBE8Ikue2ZBGCOVkp6C-2">
          <mxGeometry relative="1" as="geometry" />
        </mxCell>
        <mxCell id="dDBE8Ikue2ZBGCOVkp6C-47" value="Impact" style="edgeLabel;html=1;align=center;verticalAlign=middle;resizable=0;points=[];" vertex="1" connectable="0" parent="dDBE8Ikue2ZBGCOVkp6C-34">
          <mxGeometry x="-0.0471" y="3" relative="1" as="geometry">
            <mxPoint as="offset" />
          </mxGeometry>
        </mxCell>
        <mxCell id="dDBE8Ikue2ZBGCOVkp6C-7" value="&lt;pre style=&quot;margin-top: 0px; margin-bottom: 0px; font-family: inherit; font-size: 14px; word-break: normal; text-align: left;&quot; class=&quot;js_message_plain ng-binding&quot;&gt;Organic &lt;/pre&gt;&lt;pre style=&quot;margin-top: 0px; margin-bottom: 0px; font-family: inherit; font-size: 14px; word-break: normal; text-align: left;&quot; class=&quot;js_message_plain ng-binding&quot;&gt;Carbon&lt;/pre&gt;" style="rounded=1;whiteSpace=wrap;html=1;fillColor=#fff2cc;strokeColor=#d6b656;" vertex="1" parent="1">
          <mxGeometry x="506" y="409" width="70" height="50" as="geometry" />
        </mxCell>
        <mxCell id="dDBE8Ikue2ZBGCOVkp6C-15" style="rounded=0;orthogonalLoop=1;jettySize=auto;html=1;exitX=1;exitY=0.5;exitDx=0;exitDy=0;entryX=0;entryY=0.5;entryDx=0;entryDy=0;" edge="1" parent="1" source="dDBE8Ikue2ZBGCOVkp6C-10" target="dDBE8Ikue2ZBGCOVkp6C-4">
          <mxGeometry relative="1" as="geometry" />
        </mxCell>
        <mxCell id="dDBE8Ikue2ZBGCOVkp6C-18" value="Calculate" style="edgeLabel;html=1;align=center;verticalAlign=middle;resizable=0;points=[];" vertex="1" connectable="0" parent="dDBE8Ikue2ZBGCOVkp6C-15">
          <mxGeometry x="-0.099" y="-3" relative="1" as="geometry">
            <mxPoint x="-2" y="-1" as="offset" />
          </mxGeometry>
        </mxCell>
        <mxCell id="dDBE8Ikue2ZBGCOVkp6C-10" value="&lt;pre style=&quot;margin-top: 0px; margin-bottom: 0px; font-family: inherit; font-size: 14px; word-break: normal; text-align: left;&quot; class=&quot;js_message_plain ng-binding&quot;&gt;PM2.5&lt;/pre&gt;" style="rounded=1;whiteSpace=wrap;html=1;fillColor=#fff2cc;strokeColor=#d6b656;" vertex="1" parent="1">
          <mxGeometry x="880" y="414" width="60" height="40" as="geometry" />
        </mxCell>
        <mxCell id="dDBE8Ikue2ZBGCOVkp6C-25" style="rounded=0;orthogonalLoop=1;jettySize=auto;html=1;exitX=0.5;exitY=1;exitDx=0;exitDy=0;" edge="1" parent="1" source="dDBE8Ikue2ZBGCOVkp6C-1" target="dDBE8Ikue2ZBGCOVkp6C-2">
          <mxGeometry relative="1" as="geometry" />
        </mxCell>
        <mxCell id="dDBE8Ikue2ZBGCOVkp6C-26" value="Impact" style="edgeLabel;html=1;align=center;verticalAlign=middle;resizable=0;points=[];" vertex="1" connectable="0" parent="dDBE8Ikue2ZBGCOVkp6C-25">
          <mxGeometry x="-0.1122" y="1" relative="1" as="geometry">
            <mxPoint as="offset" />
          </mxGeometry>
        </mxCell>
        <mxCell id="dDBE8Ikue2ZBGCOVkp6C-27" style="rounded=0;orthogonalLoop=1;jettySize=auto;html=1;exitX=0.5;exitY=1;exitDx=0;exitDy=0;" edge="1" parent="1" source="dDBE8Ikue2ZBGCOVkp6C-11" target="dDBE8Ikue2ZBGCOVkp6C-21">
          <mxGeometry relative="1" as="geometry" />
        </mxCell>
        <mxCell id="dDBE8Ikue2ZBGCOVkp6C-28" value="Cause" style="edgeLabel;html=1;align=center;verticalAlign=middle;resizable=0;points=[];" vertex="1" connectable="0" parent="dDBE8Ikue2ZBGCOVkp6C-27">
          <mxGeometry x="-0.1842" y="-1" relative="1" as="geometry">
            <mxPoint as="offset" />
          </mxGeometry>
        </mxCell>
        <mxCell id="dDBE8Ikue2ZBGCOVkp6C-32" style="rounded=0;orthogonalLoop=1;jettySize=auto;html=1;exitX=0;exitY=0.5;exitDx=0;exitDy=0;" edge="1" parent="1" source="dDBE8Ikue2ZBGCOVkp6C-11" target="dDBE8Ikue2ZBGCOVkp6C-1">
          <mxGeometry relative="1" as="geometry" />
        </mxCell>
        <mxCell id="dDBE8Ikue2ZBGCOVkp6C-46" value="Cause" style="edgeLabel;html=1;align=center;verticalAlign=middle;resizable=0;points=[];" vertex="1" connectable="0" parent="dDBE8Ikue2ZBGCOVkp6C-32">
          <mxGeometry x="-0.0012" y="1" relative="1" as="geometry">
            <mxPoint as="offset" />
          </mxGeometry>
        </mxCell>
        <mxCell id="dDBE8Ikue2ZBGCOVkp6C-33" style="rounded=0;orthogonalLoop=1;jettySize=auto;html=1;exitX=0;exitY=0.5;exitDx=0;exitDy=0;entryX=0.5;entryY=0;entryDx=0;entryDy=0;" edge="1" parent="1" source="dDBE8Ikue2ZBGCOVkp6C-11" target="dDBE8Ikue2ZBGCOVkp6C-7">
          <mxGeometry relative="1" as="geometry" />
        </mxCell>
        <mxCell id="dDBE8Ikue2ZBGCOVkp6C-45" value="Cause" style="edgeLabel;html=1;align=center;verticalAlign=middle;resizable=0;points=[];" vertex="1" connectable="0" parent="dDBE8Ikue2ZBGCOVkp6C-33">
          <mxGeometry x="-0.3155" y="-2" relative="1" as="geometry">
            <mxPoint as="offset" />
          </mxGeometry>
        </mxCell>
        <mxCell id="dDBE8Ikue2ZBGCOVkp6C-11" value="Wildfires" style="rounded=1;whiteSpace=wrap;html=1;fillColor=#f8cecc;strokeColor=#b85450;" vertex="1" parent="1">
          <mxGeometry x="733.5" y="320" width="120" height="60" as="geometry" />
        </mxCell>
        <mxCell id="dDBE8Ikue2ZBGCOVkp6C-24" style="rounded=0;orthogonalLoop=1;jettySize=auto;html=1;exitX=1;exitY=0.5;exitDx=0;exitDy=0;" edge="1" parent="1" source="dDBE8Ikue2ZBGCOVkp6C-21" target="dDBE8Ikue2ZBGCOVkp6C-10">
          <mxGeometry relative="1" as="geometry" />
        </mxCell>
        <mxCell id="dDBE8Ikue2ZBGCOVkp6C-51" value="Contains" style="edgeLabel;html=1;align=center;verticalAlign=middle;resizable=0;points=[];" vertex="1" connectable="0" parent="dDBE8Ikue2ZBGCOVkp6C-24">
          <mxGeometry x="0.1406" y="-2" relative="1" as="geometry">
            <mxPoint x="-9" y="-2" as="offset" />
          </mxGeometry>
        </mxCell>
        <mxCell id="dDBE8Ikue2ZBGCOVkp6C-21" value="Smoke" style="rounded=1;whiteSpace=wrap;html=1;fillColor=#fff2cc;strokeColor=#d6b656;" vertex="1" parent="1">
          <mxGeometry x="768.5" y="420" width="51.5" height="30.5" as="geometry" />
        </mxCell>
        <mxCell id="dDBE8Ikue2ZBGCOVkp6C-30" style="rounded=0;orthogonalLoop=1;jettySize=auto;html=1;exitX=0.5;exitY=1;exitDx=0;exitDy=0;entryX=0.5;entryY=0;entryDx=0;entryDy=0;" edge="1" parent="1" source="dDBE8Ikue2ZBGCOVkp6C-21" target="niaGHHPIjS1ahwkak-Eg-1">
          <mxGeometry relative="1" as="geometry" />
        </mxCell>
        <mxCell id="dDBE8Ikue2ZBGCOVkp6C-31" value="Impact" style="edgeLabel;html=1;align=center;verticalAlign=middle;resizable=0;points=[];" vertex="1" connectable="0" parent="dDBE8Ikue2ZBGCOVkp6C-30">
          <mxGeometry x="0.1001" y="-2" relative="1" as="geometry">
            <mxPoint as="offset" />
          </mxGeometry>
        </mxCell>
      </root>
    </mxGraphModel>
  </diagram>
</mxfile>
